<?xml version="1.0" encoding="utf-8"?>
<!-- Generator: Adobe Illustrator 16.0.4, SVG Export Plug-In . SVG Version: 6.00 Build 0)  -->
<!DOCTYPE svg PUBLIC "-//W3C//DTD SVG 1.1//EN" "http://www.w3.org/Graphics/SVG/1.1/DTD/svg11.dtd">
<svg version="1.1" id="Layer_4" xmlns="http://www.w3.org/2000/svg" xmlns:xlink="http://www.w3.org/1999/xlink" x="0px" y="0px"
	 width="400px" height="400px" viewBox="0 0 400 400" enable-background="new 0 0 400 400" xml:space="preserve">
<g>
	<path fill="#11BA55" d="M371.402,318.986H123.508c0,0,121.859-182.645,127.504-188.292c5.656-5.648,9.416,0,9.416,0
		L371.402,318.986z M258.963,135.71c0,0-2.924-5.02-7.319-0.628c-4.392,4.392-47.892,72.155-47.892,72.155l28.439-11.084
		l5.855,30.537l19.89-21.772l9.334,6.485h10l17.096,10.636l-0.263-19.821l5.852,3.141L258.963,135.71z"/>
	<path fill="#11BA55" d="M167.274,83.694c0,0,4.857-6.029,9.416,0c5.644,5.648,158.919,235.292,158.919,235.292H28.598
		L167.274,83.694z M127.746,158.358l5.852-3.14l-1.02,11.357l-1.064,11.859l10.298-15.229l12.019-17.772l7.384-10.919l-1.296,13.161
		l-1.424,14.447l8.953-8.633l8.615-8.307l6.801,17.269l6.791,17.239l2.955-15.412l2.9-15.125l13.938,5.432l7.005,2.731l7.496,2.92
		c0,0-43.5-67.764-47.892-72.156c-3.818-4.324-7.32,0.628-7.32,0.628L127.746,158.358z"/>
	<polygon fill="#FFFFFF" points="97.502,200.085 296.852,200.085 309.604,222.721 84.31,222.721 	"/>
	<polygon fill="#FFFFFF" points="58.104,260.585 332.255,260.585 345.282,283.221 46.604,283.221 	"/>
</g>
</svg>
