<?xml version="1.0" encoding="utf-8"?>
<!-- Generator: Adobe Illustrator 16.0.4, SVG Export Plug-In . SVG Version: 6.00 Build 0)  -->
<!DOCTYPE svg PUBLIC "-//W3C//DTD SVG 1.1//EN" "http://www.w3.org/Graphics/SVG/1.1/DTD/svg11.dtd">
<svg version="1.1" id="Layer_4" xmlns="http://www.w3.org/2000/svg" xmlns:xlink="http://www.w3.org/1999/xlink" x="0px" y="0px"
	 width="400px" height="400px" viewBox="0 0 400 400" enable-background="new 0 0 400 400" xml:space="preserve">
<g id="Layer_2" display="none">
	<rect display="inline" fill="#2E4939" width="400" height="400"/>
</g>
<g>
	<path fill="#FFFFFF" d="M371.402,318.986L260.428,130.694c0,0-3.76-5.648-9.416,0c-1.539,1.54-23.606,33.741-23.606,33.741
		l21.19,32.25c0.696-1.361,1.626-2.554,2.82-3.391l-19.665-29.261c0,0,17.456-26.515,19.894-28.951
		c4.395-4.392,7.318,0.628,7.318,0.628l50.641,87.04l-38.399-0.013c-1.829,0,1.829,0,0,0l3.394,37.848H332.5l13.334,22.636
		l-69.206,0.001l3.206,35.765H371.402z"/>
	<path fill="#FFFFFF" d="M167.274,83.694L98.675,200.085L255.944,200c-38.264-56.97-76.488-113.539-79.254-116.307
		C172.131,77.665,167.274,83.694,167.274,83.694z M216.453,157.316l-7.005-2.731l-13.938-5.432l-2.9,15.125l-2.955,15.412
		l-6.791-17.239l-6.801-17.269l-8.615,8.307l-8.953,8.633l1.424-14.447l1.296-13.161l-7.384,10.919l-12.019,17.772l-10.298,15.229
		l1.064-11.859l1.02-11.357l-5.852,3.14l40.991-69.65c0,0,3.502-4.952,7.32-0.628c4.392,4.392,47.892,72.156,47.892,72.156
		L216.453,157.316z"/>
	<path fill="#FFFFFF" d="M271.181,222.703L271.181,222.703l0.012,0.018H85.334l-22.316,37.864H332.5l13.334,22.636H49.678
		l-21.08,35.766h307.011c0,0,23.149-16.436,10.225-35.766c-2.618-3.916-1.037-2.36-3.996-6.783c-1.332-1.991-2.991-5.36-4.383-7.44
		c-2.879-4.301-1.86-3.79-4.955-8.412C325.649,250.354,278.685,233.892,271.181,222.703z"/>
</g>
</svg>
